HIERARCHY
ROOT root
{
	OFFSET 0.000000 0.000000 0.000000
	CHANNELS 6 Xposition Yposition Zposition Zrotation Yrotation Xrotation
	JOINT lhip
	{
		OFFSET 0.058581 -0.082280 -0.017664
		CHANNELS 3 Zrotation Yrotation Xrotation
		JOINT lknee
		{
			OFFSET 0.043451 -0.386469 0.008037
			CHANNELS 3 Zrotation Yrotation Xrotation
			JOINT lankle
			{
				OFFSET -0.014790 -0.426874 -0.037428
				CHANNELS 3 Zrotation Yrotation Xrotation
				JOINT ltoe
				{
					OFFSET 0.041054 -0.060286 0.122042
					CHANNELS 3 Zrotation Yrotation Xrotation
					End Site
					{
						OFFSET 0.000000 0.000000 0.000000
					}
				}
			}
		}
	}
	JOINT rhip
	{
		OFFSET -0.060310 -0.090513 -0.013543
		CHANNELS 3 Zrotation Yrotation Xrotation
		JOINT rknee
		{
			OFFSET -0.043257 -0.383688 -0.004843
			CHANNELS 3 Zrotation Yrotation Xrotation
			JOINT rankle
			{
				OFFSET 0.019056 -0.420046 -0.034562
				CHANNELS 3 Zrotation Yrotation Xrotation
				JOINT rtoe
				{
					OFFSET -0.034840 -0.062106 0.130323
					CHANNELS 3 Zrotation Yrotation Xrotation
					End Site
					{
						OFFSET 0.000000 0.000000 0.000000
					}
				}
			}
		}
	}
	JOINT lowerback
	{
		OFFSET 0.004439 0.124404 -0.038385
		CHANNELS 3 Zrotation Yrotation Xrotation
		JOINT upperback
		{
			OFFSET 0.004488 0.137956 0.026820
			CHANNELS 3 Zrotation Yrotation Xrotation
			JOINT chest
			{
				OFFSET -0.002265 0.056032 0.002855
				CHANNELS 3 Zrotation Yrotation Xrotation
				JOINT lowerneck
				{
					OFFSET -0.013390 0.211636 -0.033468
					CHANNELS 3 Zrotation Yrotation Xrotation
					JOINT upperneck
					{
						OFFSET 0.010113 0.088937 0.050410
						CHANNELS 3 Zrotation Yrotation Xrotation
						End Site
						{
							OFFSET 0.000000 0.000000 0.000000
						}
					}
				}
				JOINT lclavicle
				{
					OFFSET 0.071702 0.114000 -0.018898
					CHANNELS 3 Zrotation Yrotation Xrotation
					JOINT lshoulder
					{
						OFFSET 0.122921 0.045205 -0.019046
						CHANNELS 3 Zrotation Yrotation Xrotation
						JOINT lelbow
						{
							OFFSET 0.255332 -0.015649 -0.022946
							CHANNELS 3 Zrotation Yrotation Xrotation
							JOINT lwrist
							{
								OFFSET 0.265709 0.012698 -0.007375
								CHANNELS 3 Zrotation Yrotation Xrotation
								End Site
								{
									OFFSET 0.000000 0.000000 0.000000
								}
							}
						}
					}
				}
				JOINT rclavicle
				{
					OFFSET -0.082954 0.112472 -0.023707
					CHANNELS 3 Zrotation Yrotation Xrotation
					JOINT rshoulder
					{
						OFFSET -0.113228 0.046853 -0.008472
						CHANNELS 3 Zrotation Yrotation Xrotation
						JOINT relbow
						{
							OFFSET -0.260127 -0.014369 -0.031269
							CHANNELS 3 Zrotation Yrotation Xrotation
							JOINT rwrist
							{
								OFFSET -0.269108 0.006794 -0.006027
								CHANNELS 3 Zrotation Yrotation Xrotation
								End Site
								{
									OFFSET 0.000000 0.000000 0.000000
								}
							}
						}
					}
				}
			}
		}
	}
}
MOTION
Frames: 17
Frame Time: 0.033333
1.267529 0.691311 0.987249 -100.414084 0.642665 86.618921 -0.889870 0.410427 -3.014955 -1.912829 -2.009057 15.454545 4.367404 15.037805 -20.831771 0.000000 -0.000000 0.000000 2.869597 1.847054 -4.974987 -1.938609 3.241651 17.038916 2.745350 -6.597892 -19.531161 0.000000 -0.000000 0.000000 -0.850866 2.399645 12.373602 -0.374155 -1.398345 -0.644164 -0.775827 0.382146 2.856910 4.779216 5.856928 -14.891093 3.978954 -3.492238 -5.718862 -23.202691 -2.333015 -1.583633 -50.824324 -7.159753 9.614085 -2.671647 -18.386897 13.091404 -11.887559 0.346000 -3.592671 22.329355 3.029885 -1.650833 59.226574 3.467155 15.768447 -14.859420 28.958790 2.602560 10.256648 -1.457877 0.855496 
1.267204 0.691305 0.983966 -100.566340 0.803706 86.984407 -0.175017 0.535332 -5.120205 -2.999609 -1.608376 18.912248 4.603528 15.138071 -22.755547 0.000000 -0.000000 0.000000 2.745009 1.742681 -6.595751 -1.278280 3.161036 19.438438 2.584728 -6.489931 -20.952687 0.000000 -0.000000 0.000000 -0.770854 2.339861 12.874269 -0.251795 -1.455689 -0.539867 -0.676017 0.308364 2.896110 4.680428 6.334037 -15.649118 3.640473 -3.069886 -6.457707 -23.130734 -2.881251 -1.682071 -50.890695 -7.178578 9.180123 -2.295418 -17.278116 13.456858 -12.403828 1.077439 -3.135417 22.123837 3.239609 -1.690657 58.833736 3.738622 15.286376 -14.509238 28.719421 3.187991 10.551799 -1.472923 0.959606 
1.267659 0.691049 0.978339 -100.512376 1.020881 87.502452 0.693424 0.481272 -8.089946 -4.126697 -0.722932 23.564972 4.946297 14.932195 -25.128324 0.000000 -0.000000 0.000000 2.589900 1.549717 -9.017733 -0.410325 2.900939 22.973351 2.220294 -6.412897 -23.120835 0.000000 -0.000000 0.000000 -0.727040 2.376697 14.037823 0.024853 -1.615550 -1.129014 -0.505175 0.160877 2.821162 4.676961 6.874551 -16.779378 3.347261 -2.851619 -6.660368 -22.829475 -3.336225 -1.603415 -51.304876 -7.216034 9.056518 -2.138330 -17.386014 13.954463 -12.293668 1.138782 -3.432114 21.752943 3.350267 -1.591534 58.539062 4.053357 14.839937 -14.249237 28.592407 3.795019 11.117936 -1.727577 0.624326 
1.269197 0.690836 0.969841 -100.334377 1.183402 88.025846 1.400938 0.406843 -11.593812 -5.139191 0.016927 29.029407 5.428610 15.089659 -27.231892 0.000000 -0.000000 0.000000 2.451418 1.603232 -12.096338 0.240258 2.178348 27.679443 1.663937 -6.532408 -25.392494 0.000000 -0.000000 0.000000 -0.783161 2.205620 15.818263 0.231431 -1.699776 -2.092277 -0.246035 -0.068159 2.854159 4.559578 7.359425 -18.331884 3.078878 -2.300052 -7.342731 -22.650426 -3.789018 -1.526040 -51.707372 -7.293245 9.004365 -2.046355 -18.538711 13.861046 -9.682583 0.700162 -3.742863 21.424303 3.910804 -1.444262 58.190574 4.523885 14.594025 -13.581473 28.074931 3.984440 9.082224 -1.063808 0.445591 
1.271718 0.690467 0.957785 -99.807713 1.449436 88.591714 2.187062 0.079561 -15.741380 -5.854296 1.046262 35.328675 5.934058 14.987052 -29.384461 0.000000 -0.000000 0.000000 2.474240 1.751614 -15.748376 0.389279 0.919142 33.392250 1.024408 -6.836697 -27.994106 0.000000 -0.000000 0.000000 -0.765942 2.029619 18.024714 0.483211 -1.844866 -3.107323 0.089634 -0.350198 2.640365 4.372793 8.025694 -19.917664 2.942289 -1.581101 -8.271348 -22.348647 -4.584773 -1.273275 -52.315886 -7.491968 9.109846 -1.813686 -20.178283 12.841507 -7.143907 -0.881157 -5.322459 21.052591 4.667969 -1.203924 57.564779 5.430059 14.126757 -12.655335 27.174531 4.474224 7.498162 -0.317693 0.284158 
1.274029 0.690141 0.941510 -98.657025 1.774693 89.267243 3.041209 -0.422271 -20.086728 -6.304720 2.258950 41.812182 6.605665 14.542529 -31.801348 0.000000 -0.000000 0.000000 2.313826 1.727171 -19.588071 0.513092 -0.824673 39.307299 0.248585 -7.324098 -30.653709 0.000000 -0.000000 0.000000 -0.778216 1.666170 19.858154 0.781321 -2.045644 -3.331829 0.511468 -0.593891 2.315382 4.155011 8.791612 -22.157831 2.517290 -0.882003 -9.208975 -21.895856 -5.940831 -0.821797 -53.047818 -7.785497 9.443827 -1.430641 -21.946082 12.213484 -6.138731 -1.921092 -8.460045 20.416663 5.928933 -0.804746 57.121037 6.989421 13.632074 -12.392326 25.784544 4.305461 7.642051 -0.400263 -0.595457 
1.278838 0.691012 0.922101 -97.489004 1.780729 89.782032 3.717633 -0.791731 -24.523581 -6.868627 3.201529 48.084588 6.868366 14.029518 -33.771445 0.000000 -0.000000 0.000000 1.948923 2.282634 -23.702311 0.164308 -2.550893 45.616266 -0.362812 -8.357640 -32.949865 0.000000 -0.000000 0.000000 -0.929456 1.583339 22.395458 0.788747 -1.994976 -3.874107 0.656321 -0.704749 2.203299 3.852883 9.689649 -25.056939 2.126081 -0.318139 -10.260550 -21.743939 -8.147309 -0.126623 -53.307091 -7.994807 9.687827 0.992021 -24.547690 11.916968 -1.857910 -3.143230 -7.084676 20.030664 8.345701 -0.342089 57.040179 9.017857 12.545508 -12.712580 23.707943 2.537450 5.755055 -0.545086 -2.530844 
1.282019 0.692951 0.902368 -95.529646 1.774858 90.278683 4.702366 -1.334409 -29.158118 -8.067504 3.910725 54.745824 6.846519 13.103807 -35.392400 0.000000 -0.000000 0.000000 1.506187 2.181426 -27.463880 -0.307770 -4.194794 51.846914 -1.008354 -9.667591 -35.040175 0.000000 -0.000000 0.000000 -0.828857 1.636569 24.393187 0.647383 -1.934018 -4.223307 0.629142 -0.862623 1.845424 3.407340 10.600192 -27.119094 1.659297 0.078579 -11.530070 -21.736876 -9.771529 0.329526 -53.553141 -7.847870 9.597013 2.954660 -25.675141 11.802311 0.189029 -3.560934 -6.920838 19.949323 10.877734 0.296039 57.270142 12.069913 11.692218 -13.430985 21.217404 1.045813 3.647800 -1.684327 -2.578711 
1.283407 0.695486 0.884229 -93.187400 1.356840 90.403691 5.153990 -2.348865 -32.729210 -9.058394 4.516185 60.103437 6.950506 12.267505 -36.269321 0.000000 -0.000000 0.000000 0.872030 2.078957 -30.195038 -0.818364 -5.125779 57.146774 -1.469255 -11.544374 -36.899248 0.000000 -0.000000 0.000000 -0.927983 1.988410 25.959096 0.236855 -1.752266 -4.145139 0.461095 -0.893136 1.345243 2.941113 11.245923 -28.466953 1.084131 0.370970 -12.691904 -22.403902 -11.282265 1.147737 -53.589234 -7.250969 8.935662 5.457210 -25.533657 9.477226 2.144844 -3.185494 -7.573666 20.704066 14.324837 1.579430 56.832070 15.978623 11.528612 -14.012530 20.132092 0.365478 0.771617 -2.421569 -1.036535 
1.283447 0.699397 0.871860 -90.459535 0.975064 90.335234 5.530648 -3.534856 -35.469789 -10.073972 4.468952 64.191656 6.592048 11.199081 -36.101354 0.000000 -0.000000 0.000000 0.757471 1.486980 -31.649775 -1.686169 -5.783622 60.727372 -1.670951 -13.409219 -37.921053 0.000000 -0.000000 0.000000 -0.930489 2.906074 26.989589 -0.242258 -1.335659 -4.049659 0.486732 -0.693811 0.912158 1.996327 12.095461 -29.713711 -0.105701 1.010983 -12.665110 -23.354648 -12.428050 1.606500 -53.688332 -5.943459 8.359470 6.515430 -24.073344 8.109491 3.089753 -2.200129 -8.095099 21.659929 17.867756 2.141663 55.867772 20.091741 12.320174 -13.854402 22.381277 0.168866 -0.306390 -2.275251 -1.214483 
1.280277 0.704421 0.869216 -86.260784 0.573268 89.833178 5.167933 -5.361950 -36.031720 -11.079377 3.137994 65.360918 6.012649 9.949395 -35.450749 0.000000 -0.000000 0.000000 0.629385 0.558808 -30.604074 -2.590131 -6.910277 61.211149 -1.579141 -15.452763 -38.446709 0.000000 -0.000000 0.000000 -0.790314 3.999345 27.504779 -0.593525 -0.809292 -3.819898 0.847946 -0.456868 0.476614 0.739394 12.962666 -29.836961 -1.899306 2.355959 -12.652226 -24.193692 -13.332866 2.143143 -54.318432 -3.826275 8.109909 6.476271 -22.604010 9.179183 3.269267 -0.903814 -6.675021 22.633192 20.956796 2.535917 54.439236 24.604728 12.836141 -13.278593 27.207981 1.192209 -0.009130 -1.737509 -0.203097 
1.272551 0.709585 0.881251 -81.042164 0.527493 89.811801 4.499115 -6.613967 -34.039875 -11.547725 0.641092 61.758126 6.518627 9.321680 -34.641809 0.000000 -0.000000 0.000000 0.467112 -1.239479 -27.573087 -2.435382 -8.878444 57.769191 -1.400870 -16.520449 -37.443020 0.000000 -0.000000 0.000000 -0.122272 5.415891 26.251345 -1.182196 0.286633 -3.953354 1.110390 0.668355 0.202713 -0.547987 13.847390 -28.988037 -3.759143 3.514966 -11.662787 -23.573550 -13.959582 2.267067 -55.426397 -1.605611 8.643785 3.851611 -21.028384 13.562857 2.967892 -0.230173 -4.687653 21.521942 23.256225 3.515758 54.109705 27.172173 13.751852 -13.956070 35.274657 2.193815 -2.164419 -0.639640 -0.976034 
1.259594 0.713684 0.910468 -73.233853 0.881866 90.119071 3.353329 -7.202553 -29.918947 -11.718977 -4.843753 53.963483 7.077832 7.560498 -31.213095 0.000000 -0.000000 0.000000 0.286850 -5.176623 -21.784931 -1.139029 -12.306680 49.303063 -0.956859 -16.586858 -34.053090 0.000000 -0.000000 0.000000 0.883383 7.552870 22.182436 -1.334808 0.903380 -3.412288 1.577651 1.475843 0.404815 -1.520773 15.336004 -26.139512 -4.855456 5.745295 -10.273337 -20.934110 -13.148844 1.140655 -58.276767 -0.479044 9.283151 0.549875 -18.259316 18.764371 2.286359 1.205768 -1.925445 18.630968 23.125305 2.609758 55.023463 27.656205 14.695992 -14.141753 43.733695 4.744519 -1.456944 1.126378 0.325760 
1.241805 0.714629 0.958657 -63.611337 1.307907 89.865120 3.257848 -7.805552 -23.052849 -11.625414 -10.381684 41.833396 5.251119 3.277740 -22.115999 0.000000 -0.000000 0.000000 0.744304 -9.094835 -12.534010 0.252365 -16.152357 35.776049 -0.091135 -15.392088 -23.200868 0.000000 -0.000000 0.000000 1.768438 9.979895 17.580601 -1.429046 1.142360 -2.803441 2.093420 1.909683 -0.086652 -2.133183 17.444127 -21.946248 -5.054212 8.411938 -7.733590 -18.553320 -11.657737 0.208159 -60.823406 -0.023389 10.099214 -2.179047 -14.716853 23.514980 -1.804935 2.970395 0.079564 16.349159 21.208640 1.884655 57.746529 25.812756 16.249704 -13.274923 47.663942 8.354067 0.685298 0.733414 1.071202 
1.226011 0.711428 1.019431 -52.662630 0.270273 89.594662 1.994225 -8.777930 -14.829328 -8.828015 -15.329956 24.961914 -0.630265 -2.643331 -2.796849 0.000000 -0.000000 0.000000 1.141920 -11.200349 -4.997278 -1.257052 -17.962397 23.482562 2.485811 -13.768081 -0.853076 0.000000 -0.000000 0.000000 0.767372 10.754359 12.861786 -1.827899 1.134433 -0.675477 2.614552 1.887715 -1.722335 -3.233703 19.786976 -17.279143 -4.552461 14.230011 -7.039093 -18.112104 -10.179819 1.102468 -61.722765 -0.148015 10.623585 -2.496706 -13.357984 25.045135 -4.505598 3.795898 1.545797 15.960812 19.697310 3.414496 60.164692 24.060116 18.492321 -12.241913 46.369205 10.975253 1.580288 0.168701 3.114285 
1.212794 0.703940 1.083066 -40.546217 -2.195927 89.969230 -0.883688 -8.706335 -7.005236 -1.481263 -13.966754 2.275789 -15.285383 -4.005108 28.904216 0.000000 -0.000000 0.000000 1.105926 -11.735615 -0.798404 -6.222990 -22.301384 12.951306 6.104864 -12.796169 25.265238 0.000000 -0.000000 0.000000 -2.296388 10.426016 7.458427 -2.105851 0.464437 4.285881 3.281540 2.183099 -6.257558 -5.732165 21.179034 -11.213720 -3.706045 21.037873 -8.302598 -19.244706 -10.765278 4.826574 -61.928500 -0.942339 8.352163 -0.447889 -12.506416 18.719365 -13.372670 4.179819 7.100986 15.390634 18.573342 6.829583 62.317083 21.462186 19.342129 -9.237389 44.591588 12.947052 1.089302 -0.276609 7.541027 
1.209302 0.697048 1.138148 -27.856187 -3.202662 90.686717 -3.012090 -2.966373 -6.088083 0.631657 2.006653 -1.930232 -14.227310 2.327954 24.903117 0.000000 -0.000000 0.000000 2.497406 -8.503252 0.787257 -6.511958 -15.335798 5.234028 9.225015 -7.785727 36.274675 0.000000 -0.000000 0.000000 -1.763411 8.975693 4.716744 -3.272227 -0.288359 4.507144 2.699479 2.603443 -7.936750 -7.698279 22.683923 -3.611628 -5.142723 28.033796 -12.320162 -21.842041 -10.875522 6.780763 -59.342890 -1.467406 5.867295 -1.156691 -11.297058 18.027730 -21.051983 6.893005 10.223890 16.503821 14.696490 10.993501 62.723097 19.786325 18.241050 -4.838186 43.912464 19.077996 4.894602 -0.701926 9.215587 
